<svg id="图层_2" data-name="图层 2" xmlns="http://www.w3.org/2000/svg" xmlns:xlink="http://www.w3.org/1999/xlink" viewBox="0 0 518 518"><defs><style>.cls-1{fill:url(#未命名的渐变_225);}.cls-2{fill:url(#未命名的渐变_226);}.cls-3{fill:#f0fdff;}</style><linearGradient id="未命名的渐变_225" x1="259" y1="473.91" x2="259" y2="44.09" gradientUnits="userSpaceOnUse"><stop offset="0" stop-color="#bfe1fb" stop-opacity="0.8"/><stop offset="0.12" stop-color="#b4ddfa" stop-opacity="0.81"/><stop offset="0.33" stop-color="#95d3f6" stop-opacity="0.84"/><stop offset="0.58" stop-color="#64c2ef" stop-opacity="0.9"/><stop offset="0.87" stop-color="#20aae6" stop-opacity="0.97"/><stop offset="1" stop-color="#009fe2"/></linearGradient><linearGradient id="未命名的渐变_226" x1="259" y1="425.29" x2="259" y2="92.71" gradientUnits="userSpaceOnUse"><stop offset="0" stop-color="#dcf2ff"/><stop offset="0.21" stop-color="#d8f0fe"/><stop offset="0.42" stop-color="#cdebfb"/><stop offset="0.61" stop-color="#bae2f5"/><stop offset="0.8" stop-color="#9fd6ee"/><stop offset="0.99" stop-color="#7dc7e4"/><stop offset="1" stop-color="#7cc6e4"/></linearGradient></defs><title>成就系统</title><path class="cls-1" d="M452.59,154.1,259,44.09,65.41,154.1C70.19,297.4,148.46,419.48,259,473.91,369.54,419.48,447.81,297.4,452.59,154.1Z"/><path class="cls-2" d="M408.8,177.83,259,92.71,109.2,177.83c3.7,110.88,64.26,205.35,149.8,247.46C344.54,383.18,405.1,288.71,408.8,177.83Z"/><polygon class="cls-3" points="287.25 207.83 350.09 215.46 304.03 261.59 314.06 324.78 258.1 296.27 201.46 327.7 212.94 263.95 167.91 220.18 230.96 209.29 259.77 150.81 287.25 207.83"/></svg>